<svg width="680" height="157" viewBox="0 0 680 157" fill="none" xmlns="http://www.w3.org/2000/svg">
<path d="M114.4 12.7C104.1 4.2 90.0001 0 72.0001 0H27.2001V6.29999H71.2001C86.5001 6.29999 100.3 9.39999 108.8 16.8C117.3 24.2 123.6 35 123.6 48.4C123.6 61.4 118 70.9 109.3 78.2C100.6 85.5 84.8001 88.7 69.1001 88.7H18.6001V95H69.5001C88.4001 95 103.2 90.9 113.9 82.7C124.5 74.5 129.9 62.9 129.9 48C129.9 32.8 124.7 21.1 114.4 12.7Z" fill="white"/>
<path d="M114.4 12.7C104.1 4.2 90.0001 0 72.0001 0H27.2001V6.29999H71.2001C86.5001 6.29999 100.3 9.39999 108.8 16.8C117.3 24.2 123.6 35 123.6 48.4C123.6 61.4 118 70.9 109.3 78.2C100.6 85.5 84.8001 88.7 69.1001 88.7H18.6001V95H69.5001C88.4001 95 103.2 90.9 113.9 82.7C124.5 74.5 129.9 62.9 129.9 48C129.9 32.8 124.7 21.1 114.4 12.7Z" fill="white"/>
<path d="M110.6 21.6999C104.2 16.7999 96.9 12.8999 76.1 12.8999H41.5V18.9999C41.5 18.9999 57 18.7999 75.3 18.9999C93 19.1999 99.5 21.1999 105.5 25.5999C113.1 31.1999 117.9 38.1999 117.9 47.8999C117.9 57.2999 113.1 63.8999 105.4 69.5999C97.6 75.3999 85.6 75.3999 80.7 75.5999C78.9 75.5999 55 75.5999 55 75.5999V81.6999C55 81.6999 66.8 81.8999 74.2 81.6999C91 81.2999 101 80.2999 110.3 73.3999C119 66.8999 123.6 58.3999 123.6 47.5999C123.6 33.3999 116.4 26.2999 110.6 21.6999Z" fill="white"/>
<path d="M110.6 21.6999C104.2 16.7999 96.9 12.8999 76.1 12.8999H41.5V18.9999C41.5 18.9999 57 18.7999 75.3 18.9999C93 19.1999 99.5 21.1999 105.5 25.5999C113.1 31.1999 117.9 38.1999 117.9 47.8999C117.9 57.2999 113.1 63.8999 105.4 69.5999C97.6 75.3999 85.6 75.3999 80.7 75.5999C78.9 75.5999 55 75.5999 55 75.5999V81.6999C55 81.6999 66.8 81.8999 74.2 81.6999C91 81.2999 101 80.2999 110.3 73.3999C119 66.8999 123.6 58.3999 123.6 47.5999C123.6 33.3999 116.4 26.2999 110.6 21.6999Z" fill="white"/>
<path d="M107.5 29.8C102.7 26.8 98.5 24.8 78.6 24.8H53.7V28.8H77.9C95.5 28.8 102.1 31.9001 104.2 33.2001C108.2 35.6001 113.4 39.6001 113.4 47.6001C113.4 52.7001 110.4 59.2001 105.9 61.7001C101.8 64.0001 94.3 66.1001 81.2 66.1001H0V70.1001H81.4C97.3 70.1001 102.7 68.3001 108.3 65.2001C113.9 62.1001 117.7 55.7001 117.7 47.6001C117.7 38.4001 112.6 33 107.5 29.8Z" fill="white"/>
<path d="M107.5 29.8C102.7 26.8 98.5 24.8 78.6 24.8H53.7V28.8H77.9C95.5 28.8 102.1 31.9001 104.2 33.2001C108.2 35.6001 113.4 39.6001 113.4 47.6001C113.4 52.7001 110.4 59.2001 105.9 61.7001C101.8 64.0001 94.3 66.1001 81.2 66.1001H0V70.1001H81.4C97.3 70.1001 102.7 68.3001 108.3 65.2001C113.9 62.1001 117.7 55.7001 117.7 47.6001C117.7 38.4001 112.6 33 107.5 29.8Z" fill="white"/>
<path d="M123.3 74.0999C113 65.5999 98.9 61.3999 80.9 61.3999H50.9V67.6999H80C95.3 67.6999 109.1 70.8999 117.6 78.1999C126.1 85.4999 132.5 96.3999 132.5 109.8C132.5 122.8 127 132.3 118.2 139.6C109.4 146.9 93.7 150.1 78 150.1H27.5V156.4H78.4C97.3 156.4 112.1 152.3 122.8 144.1C133.5 135.9 138.8 124.3 138.8 109.4C138.7 94.2999 133.6 82.5999 123.3 74.0999Z" fill="white"/>
<path d="M123.3 74.0999C113 65.5999 98.9 61.3999 80.9 61.3999H50.9V67.6999H80C95.3 67.6999 109.1 70.8999 117.6 78.1999C126.1 85.4999 132.5 96.3999 132.5 109.8C132.5 122.8 127 132.3 118.2 139.6C109.4 146.9 93.7 150.1 78 150.1H27.5V156.4H78.4C97.3 156.4 112.1 152.3 122.8 144.1C133.5 135.9 138.8 124.3 138.8 109.4C138.7 94.2999 133.6 82.5999 123.3 74.0999Z" fill="white"/>
<path d="M119.5 83.0998C113.1 78.2998 105.8 74.2998 85 74.2998H38V80.3998C38 80.3998 65.9 80.1998 84.2 80.3998C101.9 80.5998 108.4 82.5998 114.4 86.9998C122 92.5998 126.8 99.5998 126.8 109.3C126.8 118.7 122 125.3 114.3 131C106.5 136.8 94.5 136.8 89.6 137C87.8 137 63.9 137 63.9 137V143.1C63.9 143.1 75.8 143.3 83.1 143.1C99.9 142.7 109.9 141.7 119.2 134.8C127.9 128.3 132.5 119.8 132.5 109C132.5 94.8998 125.4 87.6998 119.5 83.0998Z" fill="white"/>
<path d="M119.5 83.0998C113.1 78.2998 105.8 74.2998 85 74.2998H38V80.3998C38 80.3998 65.9 80.1998 84.2 80.3998C101.9 80.5998 108.4 82.5998 114.4 86.9998C122 92.5998 126.8 99.5998 126.8 109.3C126.8 118.7 122 125.3 114.3 131C106.5 136.8 94.5 136.8 89.6 137C87.8 137 63.9 137 63.9 137V143.1C63.9 143.1 75.8 143.3 83.1 143.1C99.9 142.7 109.9 141.7 119.2 134.8C127.9 128.3 132.5 119.8 132.5 109C132.5 94.8998 125.4 87.6998 119.5 83.0998Z" fill="white"/>
<path d="M48 103.9H92.1V100.5H48V103.9Z" fill="white"/>
<path d="M48 103.9H92.1V100.5H48V103.9Z" fill="white"/>
<path d="M66.2 115.8H91.8V112.9H66.2V115.8Z" fill="white"/>
<path d="M66.2 115.8H91.8V112.9H66.2V115.8Z" fill="white"/>
<path d="M27.5 103.9H40.5V100.5H27.5V103.9Z" fill="white"/>
<path d="M27.5 103.9H40.5V100.5H27.5V103.9Z" fill="white"/>
<path d="M19.3 116H59V112.6H19.3V116Z" fill="white"/>
<path d="M19.3 116H59V112.6H19.3V116Z" fill="white"/>
<path d="M29.1001 28.5H44.6001V25.7H29.1001V28.5Z" fill="white"/>
<path d="M29.1001 28.5H44.6001V25.7H29.1001V28.5Z" fill="white"/>
<path d="M18.3999 51.2999H53.6999V48.0999H18.3999V51.2999Z" fill="white"/>
<path d="M18.3999 51.2999H53.6999V48.0999H18.3999V51.2999Z" fill="white"/>
<path d="M19.3 142.7H56.6001V138.7H19.3V142.7Z" fill="white"/>
<path d="M19.3 142.7H56.6001V138.7H19.3V142.7Z" fill="white"/>
<path d="M10.1001 156H19.4001V150.1H10.1001V156Z" fill="white"/>
<path d="M10.1001 156H19.4001V150.1H10.1001V156Z" fill="white"/>
<path d="M33.3 41.2999H91.9V38.0999H33.3V41.2999Z" fill="white"/>
<path d="M33.3 41.2999H91.9V38.0999H33.3V41.2999Z" fill="white"/>
<path d="M62.6001 51.2999H90.8001V48.0999H62.6001V51.2999Z" fill="white"/>
<path d="M62.6001 51.2999H90.8001V48.0999H62.6001V51.2999Z" fill="white"/>
<path d="M116.4 91.7999C111.6 88.8999 107.4 86.8999 87.4999 86.8999H55.8999V90.7999H86.8999C104.5 90.7999 111.2 93.7999 113.2 94.9999C117.1 97.2999 122.4 101.1 122.4 108.9C122.4 113.9 119.4 120.1 114.9 122.5C110.8 124.7 103.3 126.7 90.1999 126.7H8.8999V130.6H90.2999C106.2 130.6 111.6 128.9 117.2 125.9C122.8 122.9 126.5 116.8 126.5 108.9C126.6 100.2 121.5 94.9999 116.4 91.7999Z" fill="white"/>
<path d="M116.4 91.7999C111.6 88.8999 107.4 86.8999 87.4999 86.8999H55.8999V90.7999H86.8999C104.5 90.7999 111.2 93.7999 113.2 94.9999C117.1 97.2999 122.4 101.1 122.4 108.9C122.4 113.9 119.4 120.1 114.9 122.5C110.8 124.7 103.3 126.7 90.1999 126.7H8.8999V130.6H90.2999C106.2 130.6 111.6 128.9 117.2 125.9C122.8 122.9 126.5 116.8 126.5 108.9C126.6 100.2 121.5 94.9999 116.4 91.7999Z" fill="white"/>
<path d="M199.8 83.0999V118.8H219.3C227.7 118.8 234.3 117.2 238.9 114C243.4 111.1 246 106.1 245.9 100.7C245.9 88.9998 236 83.0999 216.3 83.0999H199.8ZM199.8 40.5999V72.5999H214.5C222.4 72.5999 228.5 71.0999 233 67.9999C237.4 65.1999 240 60.1999 239.8 54.9999C239.8 45.3999 232 40.4999 216.3 40.4999L199.8 40.5999ZM185.4 129.3V30.0999H220.3C230.9 30.0999 239.3 32.1999 245.5 36.3999C251.7 40.5999 254.8 46.0999 254.8 52.7999C254.9 58.1999 252.9 63.4999 249.2 67.4999C245.4 71.6999 240.3 74.5999 233.7 76.3999V76.6998C242 77.4998 248.6 79.9999 253.5 84.2999C258.4 88.3998 261.1 94.4999 260.9 100.9C260.9 109.4 257.1 116.2 249.6 121.5C242.1 126.8 232.6 129.4 221.1 129.4H185.4V129.3Z" fill="white"/>
<path d="M199.8 83.0999V118.8H219.3C227.7 118.8 234.3 117.2 238.9 114C243.4 111.1 246 106.1 245.9 100.7C245.9 88.9998 236 83.0999 216.3 83.0999H199.8ZM199.8 40.5999V72.5999H214.5C222.4 72.5999 228.5 71.0999 233 67.9999C237.4 65.1999 240 60.1999 239.8 54.9999C239.8 45.3999 232 40.4999 216.3 40.4999L199.8 40.5999ZM185.4 129.3V30.0999H220.3C230.9 30.0999 239.3 32.1999 245.5 36.3999C251.7 40.5999 254.8 46.0999 254.8 52.7999C254.9 58.1999 252.9 63.4999 249.2 67.4999C245.4 71.6999 240.3 74.5999 233.7 76.3999V76.6998C242 77.4998 248.6 79.9999 253.5 84.2999C258.4 88.3998 261.1 94.4999 260.9 100.9C260.9 109.4 257.1 116.2 249.6 121.5C242.1 126.8 232.6 129.4 221.1 129.4H185.4V129.3Z" fill="white"/>
<path d="M276.9 129.3H290.9V58.4998H276.9V129.3ZM284 40.3998C281.7 40.4998 279.4 39.6998 277.6 38.2998C275.9 37.0998 274.9 35.0998 275 33.0998C275 30.9998 276 28.9998 277.6 27.7998C279.4 26.3998 281.7 25.5998 284 25.6998C286.4 25.5998 288.7 26.3998 290.5 27.7998C293.4 29.8998 294 33.8998 292 36.7998C291.6 37.3998 291.1 37.8998 290.5 38.2998C288.7 39.7998 286.4 40.4998 284 40.3998Z" fill="white"/>
<path d="M276.9 129.3H290.9V58.4998H276.9V129.3ZM284 40.3998C281.7 40.4998 279.4 39.6998 277.6 38.2998C275.9 37.0998 274.9 35.0998 275 33.0998C275 30.9998 276 28.9998 277.6 27.7998C279.4 26.3998 281.7 25.5998 284 25.6998C286.4 25.5998 288.7 26.3998 290.5 27.7998C293.4 29.8998 294 33.8998 292 36.7998C291.6 37.3998 291.1 37.8998 290.5 38.2998C288.7 39.7998 286.4 40.4998 284 40.3998Z" fill="white"/>
<path d="M352.8 128.6C349.5 130.1 345.1 130.8 339.7 130.8C324.4 130.8 316.7 123.9 316.7 110V68.0999H301.7V58.3999H316.7V41.0999L330.7 37.3999V58.3999H352.7V68.0999H330.7V108C330.7 112.7 331.7 116.1 333.7 118.2C335.7 120.3 339 121.2 343.6 121.2C346.8 121.3 350 120.5 352.7 118.8L352.8 128.6Z" fill="white"/>
<path d="M352.8 128.6C349.5 130.1 345.1 130.8 339.7 130.8C324.4 130.8 316.7 123.9 316.7 110V68.0999H301.7V58.3999H316.7V41.0999L330.7 37.3999V58.3999H352.7V68.0999H330.7V108C330.7 112.7 331.7 116.1 333.7 118.2C335.7 120.3 339 121.2 343.6 121.2C346.8 121.3 350 120.5 352.7 118.8L352.8 128.6Z" fill="white"/>
<path d="M480.1 129.3H467V68.1C467.1 62.2 467.4 56.2 468.1 50.3H467.8C467 53.3 465.8 56.3 464.4 59.1L425.9 129.2H419.4L381 59.6C379.5 56.6 378.4 53.5 377.6 50.2H377.3C377.8 56.1 378 62.1 377.9 68.1V129.2H365.2V38H382.7L417.3 101.6C419.3 105.1 421.1 108.8 422.5 112.6H423C425.3 107.6 427.1 103.9 428.4 101.4L463.7 38H480.2V129.3" fill="white"/>
<path d="M480.1 129.3H467V68.1C467.1 62.2 467.4 56.2 468.1 50.3H467.8C467 53.3 465.8 56.3 464.4 59.1L425.9 129.2H419.4L381 59.6C379.5 56.6 378.4 53.5 377.6 50.2H377.3C377.8 56.1 378 62.1 377.9 68.1V129.2H365.2V38H382.7L417.3 101.6C419.3 105.1 421.1 108.8 422.5 112.6H423C425.3 107.6 427.1 103.9 428.4 101.4L463.7 38H480.2V129.3" fill="white"/>
<path d="M551.3 93.3998L530.2 95.7998C523.7 96.4998 518.8 97.7998 515.5 99.6998C512.2 101.6 510.5 104.9 510.5 109.6C510.5 113 512.2 116.2 515.1 118.1C518.1 120.3 522.2 121.4 527.3 121.4C534.3 121.4 540 119.4 544.5 115.5C548.9 111.8 551.4 106.3 551.3 100.5V93.3998ZM565.3 129.3H551.3V118.2H551C544.9 126.7 535.9 130.9 524.1 130.9C515.4 130.9 508.6 129 503.6 125.3C498.8 121.9 496.1 116.3 496.2 110.4C496.2 97.1998 505.8 89.4998 525.1 87.2998L551.3 84.2998C551.3 72.2998 545.3 66.2998 533.3 66.2998C523.1 66.1998 513.2 69.1998 504.8 74.9998V63.3998C513.4 58.9998 523.3 56.7998 534.5 56.7998C555.1 56.7998 565.3 65.5998 565.3 83.1998V129.3Z" fill="white"/>
<path d="M551.3 93.3998L530.2 95.7998C523.7 96.4998 518.8 97.7998 515.5 99.6998C512.2 101.6 510.5 104.9 510.5 109.6C510.5 113 512.2 116.2 515.1 118.1C518.1 120.3 522.2 121.4 527.3 121.4C534.3 121.4 540 119.4 544.5 115.5C548.9 111.8 551.4 106.3 551.3 100.5V93.3998ZM565.3 129.3H551.3V118.2H551C544.9 126.7 535.9 130.9 524.1 130.9C515.4 130.9 508.6 129 503.6 125.3C498.8 121.9 496.1 116.3 496.2 110.4C496.2 97.1998 505.8 89.4998 525.1 87.2998L551.3 84.2998C551.3 72.2998 545.3 66.2998 533.3 66.2998C523.1 66.1998 513.2 69.1998 504.8 74.9998V63.3998C513.4 58.9998 523.3 56.7998 534.5 56.7998C555.1 56.7998 565.3 65.5998 565.3 83.1998V129.3Z" fill="white"/>
<path d="M630.3 69.9C627.8 68.4 624.3 67.6 619.7 67.6C613.9 67.5 608.4 70 604.7 74.5C600.7 79.1 598.7 85.2999 598.7 93.1999V129.3H584.7V58.5H598.7V73.1H599C600.8 68.4 604 64.3 608.2 61.4C612.2 58.6 617 57.2 622 57.2C624.8 57.1 627.7 57.4 630.4 58.2L630.3 69.9Z" fill="white"/>
<path d="M630.3 69.9C627.8 68.4 624.3 67.6 619.7 67.6C613.9 67.5 608.4 70 604.7 74.5C600.7 79.1 598.7 85.2999 598.7 93.1999V129.3H584.7V58.5H598.7V73.1H599C600.8 68.4 604 64.3 608.2 61.4C612.2 58.6 617 57.2 622 57.2C624.8 57.1 627.7 57.4 630.4 58.2L630.3 69.9Z" fill="white"/>
<path d="M679.1 128.6C675.8 130.1 671.4 130.8 666 130.8C650.7 130.8 643 123.9 643 110V68.0999H628V58.3999H643V41.0999L657 37.3999V58.3999H679V68.0999H657V108C657 112.7 658 116.1 660 118.2C662 120.3 665.3 121.2 669.9 121.2C673.1 121.3 676.3 120.5 679 118.8L679.1 128.6Z" fill="white"/>
<path d="M679.1 128.6C675.8 130.1 671.4 130.8 666 130.8C650.7 130.8 643 123.9 643 110V68.0999H628V58.3999H643V41.0999L657 37.3999V58.3999H679V68.0999H657V108C657 112.7 658 116.1 660 118.2C662 120.3 665.3 121.2 669.9 121.2C673.1 121.3 676.3 120.5 679 118.8L679.1 128.6Z" fill="white"/>
</svg>
